<svg width="80" height="80" viewBox="0 0 80 80" fill="none" xmlns="http://www.w3.org/2000/svg">
  <path d="M65 15H15C13.35 15 12 16.35 12 18V62C12 63.65 13.35 65 15 65H65C66.65 65 68 63.65 68 62V18C68 16.35 66.65 15 65 15ZM63 60H17V20H63V60Z" fill="#E74C3C"/>
  <path d="M40 25C31.72 25 25 31.72 25 40C25 48.28 31.72 55 40 55C48.28 55 55 48.28 55 40C55 31.72 48.28 25 40 25ZM40 50C34.48 50 30 45.52 30 40C30 34.48 34.48 30 40 30C45.52 30 50 34.48 50 40C50 45.52 45.52 50 40 50Z" fill="#E74C3C"/>
  <path d="M42.5 35L37.5 40L42.5 45V41.25H47.5V38.75H42.5V35Z" fill="#E74C3C"/>
  <path d="M37.5 38.75H32.5V41.25H37.5V45L42.5 40L37.5 35V38.75Z" fill="#E74C3C"/>
</svg>