<svg width="80" height="80" viewBox="0 0 80 80" fill="none" xmlns="http://www.w3.org/2000/svg">
  <path d="M70 35H65V25C65 23.35 63.65 22 62 22H45C43.35 22 42 23.35 42 25V35H10C8.35 35 7 36.35 7 38V53C7 54.65 8.35 56 10 56H15.82C16.47 59.43 19.47 62 23 62C26.53 62 29.53 59.43 30.18 56H49.82C50.47 59.43 53.47 62 57 62C60.53 62 63.53 59.43 64.18 56H70C71.65 56 73 54.65 73 53V38C73 36.35 71.65 35 70 35ZM47 27H60V35H47V27ZM23 57C21.35 57 20 55.65 20 54C20 52.35 21.35 51 23 51C24.65 51 26 52.35 26 54C26 55.65 24.65 57 23 57ZM57 57C55.35 57 54 55.65 54 54C54 52.35 55.35 51 57 51C58.65 51 60 52.35 60 54C60 55.65 58.65 57 57 57ZM68 51H64.18C63.53 47.57 60.53 45 57 45C53.47 45 50.47 47.57 49.82 51H30.18C29.53 47.57 26.53 45 23 45C19.47 45 16.47 47.57 15.82 51H12V40H68V51Z" fill="#E74C3C"/>
  <path d="M35 45H25C23.9 45 23 44.1 23 43V33C23 31.9 23.9 31 25 31H35C36.1 31 37 31.9 37 33V43C37 44.1 36.1 45 35 45Z" fill="#E74C3C"/>
</svg>