<svg width="80" height="80" viewBox="0 0 80 80" fill="none" xmlns="http://www.w3.org/2000/svg">
  <path d="M40 5C20.67 5 5 20.67 5 40C5 59.33 20.67 75 40 75C59.33 75 75 59.33 75 40C75 20.67 59.33 5 40 5ZM40 70C23.43 70 10 56.57 10 40C10 23.43 23.43 10 40 10C56.57 10 70 23.43 70 40C70 56.57 56.57 70 40 70Z" fill="#E74C3C"/>
  <path d="M55 30C55 25.58 51.42 22 47 22C42.58 22 39 25.58 39 30C39 34.42 42.58 38 47 38C51.42 38 55 34.42 55 30ZM47 33C45.35 33 44 31.65 44 30C44 28.35 45.35 27 47 27C48.65 27 50 28.35 50 30C50 31.65 48.65 33 47 33Z" fill="#E74C3C"/>
  <path d="M33 42C33 37.58 29.42 34 25 34C20.58 34 17 37.58 17 42C17 46.42 20.58 50 25 50C29.42 50 33 46.42 33 42ZM25 45C23.35 45 22 43.65 22 42C22 40.35 23.35 39 25 39C26.65 39 28 40.35 28 42C28 43.65 26.65 45 25 45Z" fill="#E74C3C"/>
  <path d="M63 42C63 37.58 59.42 34 55 34C50.58 34 47 37.58 47 42C47 46.42 50.58 50 55 50C59.42 50 63 46.42 63 42ZM55 45C53.35 45 52 43.65 52 42C52 40.35 53.35 39 55 39C56.65 39 58 40.35 58 42C58 43.65 56.65 45 55 45Z" fill="#E74C3C"/>
  <path d="M41 54C41 49.58 37.42 46 33 46C28.58 46 25 49.58 25 54C25 58.42 28.58 62 33 62C37.42 62 41 58.42 41 54ZM33 57C31.35 57 30 55.65 30 54C30 52.35 31.35 51 33 51C34.65 51 36 52.35 36 54C36 55.65 34.65 57 33 57Z" fill="#E74C3C"/>
</svg>